<?xml version="1.0" encoding="utf-8"?>
<!-- Generator: Adobe Illustrator 23.0.1, SVG Export Plug-In . SVG Version: 6.00 Build 0)  -->
<svg version="1.1" id="Calque_1" xmlns="http://www.w3.org/2000/svg" xmlns:xlink="http://www.w3.org/1999/xlink" x="0px" y="0px"
	 viewBox="0 0 30 20" enable-background="new 0 0 30 20" xml:space="preserve">
<path d="M2.8,2.1v2.4H1.9v10.9h0.9v2.4H0.3V2.1H2.8z M27.2,17.9v-2.4h0.9V4.5h-0.9V2.1h2.5v15.8H27.2z M10.4,8.1h1.2
	c1.4,0,2.2,0.8,2.2,2.3c0,1.5-0.8,2.3-2.2,2.3h-1.2V8.1z M11.5,12.2c1.1,0,1.6-0.7,1.6-1.8c0-1.2-0.5-1.8-1.6-1.8H11v3.7H11.5z
	 M14.7,8.1h0.6v4.6h-0.6V8.1z M16,8.1h0.6l0.7,2.5c0.2,0.5,0.3,1,0.4,1.5h0c0.2-0.5,0.3-1,0.4-1.5L19,8.1h0.6l-1.5,4.6h-0.7L16,8.1z
	"/>
</svg>
