<?xml version="1.0" encoding="utf-8"?>
<!-- Generator: Adobe Illustrator 23.0.1, SVG Export Plug-In . SVG Version: 6.00 Build 0)  -->
<svg version="1.1" id="Calque_1" xmlns="http://www.w3.org/2000/svg" xmlns:xlink="http://www.w3.org/1999/xlink" x="0px" y="0px"
	 viewBox="0 0 30 20" enable-background="new 0 0 30 20" xml:space="preserve">
<path d="M2.8,2.1v2.4H1.9v10.9h0.9v2.4H0.3V2.1H2.8z M27.2,17.9v-2.4h0.9V4.5h-0.9V2.1h2.5v15.8H27.2z M17.4,5.1
	c0-1.4-0.9-2.6-2.6-2.6c-1.2,0-2.2,0.6-3.1,1.5l-1.3-1.2c1.1-1.3,2.7-2.2,4.6-2.2c2.7,0,4.5,1.6,4.5,4.3c0,3.5-4.3,4.9-3.9,8.7h-2
	C13.1,9.5,17.4,8,17.4,5.1z M13.1,17.6c0-1,0.7-1.7,1.6-1.7c0.9,0,1.6,0.7,1.6,1.7c0,1-0.7,1.7-1.6,1.7
	C13.9,19.3,13.1,18.6,13.1,17.6z"/>
</svg>
