<?xml version="1.0" encoding="utf-8"?>
<!-- Generator: Adobe Illustrator 23.0.1, SVG Export Plug-In . SVG Version: 6.00 Build 0)  -->
<svg version="1.1" id="Calque_1" xmlns="http://www.w3.org/2000/svg" xmlns:xlink="http://www.w3.org/1999/xlink" x="0px" y="0px"
	 viewBox="0 0 30 20" enable-background="new 0 0 30 20" xml:space="preserve">
<path d="M2.8,2.1v2.4H1.9v10.9h0.9v2.4H0.3V2.1H2.8z M27.2,17.9v-2.4h0.9V4.5h-0.9V2.1h2.5v15.8H27.2z M2.6,11.8l0.3-0.5
	c0.4,0.3,0.7,0.5,1.2,0.5c0.5,0,0.8-0.3,0.8-0.6c0-0.4-0.5-0.6-0.9-0.8c-0.6-0.2-1.2-0.5-1.2-1.2c0-0.6,0.5-1.1,1.4-1.1
	c0.5,0,0.9,0.2,1.3,0.5L5.1,9C4.8,8.8,4.6,8.6,4.2,8.6c-0.5,0-0.7,0.3-0.7,0.6c0,0.4,0.4,0.5,0.9,0.7c0.6,0.2,1.2,0.5,1.2,1.2
	c0,0.7-0.5,1.2-1.5,1.2C3.5,12.4,3,12.1,2.6,11.8z M6.2,10.2c0-1.3,0.9-2.1,1.8-2.1c1,0,1.6,0.7,1.6,1.9c0,0.1,0,0.3,0,0.4H6.9
	c0,0.9,0.6,1.4,1.3,1.4c0.4,0,0.7-0.1,1-0.3l0.2,0.4c-0.4,0.2-0.8,0.4-1.3,0.4C7.1,12.4,6.2,11.6,6.2,10.2z M9.1,9.9
	c0-0.8-0.4-1.3-1-1.3C7.5,8.7,7,9.1,6.9,9.9H9.1z M10.4,10.2c0-1.4,0.9-2.1,1.9-2.1c0.5,0,0.9,0.2,1.2,0.5L13.1,9
	c-0.2-0.2-0.5-0.4-0.8-0.4c-0.7,0-1.3,0.6-1.3,1.6c0,0.9,0.5,1.5,1.3,1.5c0.4,0,0.7-0.2,1-0.4l0.3,0.5c-0.4,0.3-0.8,0.5-1.3,0.5
	C11.2,12.4,10.4,11.6,10.4,10.2z M14.5,11V8.8h-0.6V8.2l0.6,0l0.1-1.1h0.6v1.1h1.1v0.6h-1.1V11c0,0.5,0.2,0.8,0.6,0.8
	c0.1,0,0.3-0.1,0.5-0.1l0.1,0.5c-0.2,0.1-0.5,0.1-0.8,0.1C14.8,12.4,14.5,11.8,14.5,11z M17.1,6.9c0-0.3,0.2-0.4,0.5-0.4
	S18,6.7,18,6.9c0,0.3-0.2,0.4-0.5,0.4S17.1,7.2,17.1,6.9z M17.2,8.2h0.7v4h-0.7V8.2z M18.9,10.2c0-1.4,0.9-2.1,1.9-2.1
	c1,0,1.9,0.8,1.9,2.1c0,1.3-0.9,2.1-1.9,2.1C19.8,12.4,18.9,11.6,18.9,10.2z M22,10.2c0-0.9-0.5-1.6-1.2-1.6s-1.2,0.6-1.2,1.6
	c0,0.9,0.5,1.5,1.2,1.5S22,11.2,22,10.2z M23.8,8.2h0.6l0.1,0.6h0c0.4-0.4,0.8-0.7,1.4-0.7c0.9,0,1.2,0.6,1.2,1.6v2.6h-0.7V9.8
	c0-0.8-0.2-1.1-0.8-1.1c-0.4,0-0.7,0.2-1.1,0.6v2.9h-0.7V8.2z"/>
</svg>
